<svg xmlns="http://www.w3.org/2000/svg" viewBox="0 0 288 201.27"><defs><style>.cls-1{fill:#222;}.cls-2{fill:#00249c;}</style></defs><title>자산 14</title><g id="레이어_2" data-name="레이어 2"><g id="레이어_1-2" data-name="레이어 1"><path class="cls-1" d="M1.8,164.05a13.2,13.2,0,0,1,4.89-5.38,13,13,0,0,1,6.91-1.88,12.15,12.15,0,0,1,5.84,1.34,11.86,11.86,0,0,1,4,3.39v-4.25H31v29.8H23.45v-4.36a11.21,11.21,0,0,1-4,3.47,12.27,12.27,0,0,1-5.89,1.37,12.66,12.66,0,0,1-6.86-1.94,13.54,13.54,0,0,1-4.89-5.46,17.52,17.52,0,0,1-1.8-8.1A17.24,17.24,0,0,1,1.8,164.05Zm20.58,3.42a7.59,7.59,0,0,0-2.9-3,7.76,7.76,0,0,0-3.93-1,7.56,7.56,0,0,0-6.75,4,9.35,9.35,0,0,0-1.1,4.65,9.65,9.65,0,0,0,1.1,4.71,7.93,7.93,0,0,0,2.9,3.09,7.37,7.37,0,0,0,3.85,1.08,7.76,7.76,0,0,0,3.93-1,7.59,7.59,0,0,0,2.9-3,10.84,10.84,0,0,0,0-9.41Z"/><path class="cls-1" d="M38.92,152.46a4.42,4.42,0,0,1,0-6.29,5,5,0,0,1,6.62,0,4.42,4.42,0,0,1,0,6.29,5,5,0,0,1-6.62,0Zm7,4.81v29.8H38.41v-29.8Z"/><path class="cls-1" d="M71,186.24a11.59,11.59,0,0,1-4.6-3.58,9.07,9.07,0,0,1-1.86-5h7.58a4.12,4.12,0,0,0,1.69,2.85,5.89,5.89,0,0,0,3.68,1.13,5.72,5.72,0,0,0,3.36-.86,2.61,2.61,0,0,0,1.21-2.21,2.33,2.33,0,0,0-1.48-2.18,27.93,27.93,0,0,0-4.71-1.59,39.89,39.89,0,0,1-5.46-1.67,9.47,9.47,0,0,1-3.66-2.64,7.07,7.07,0,0,1-1.53-4.79,7.73,7.73,0,0,1,1.43-4.52A9.57,9.57,0,0,1,70.76,158,15.33,15.33,0,0,1,77,156.79a12.8,12.8,0,0,1,8.5,2.66,9.87,9.87,0,0,1,3.5,7.18H81.82a3.91,3.91,0,0,0-1.48-2.82,6.67,6.67,0,0,0-6.67-.3,2.4,2.4,0,0,0-1.1,2.1,2.46,2.46,0,0,0,1.51,2.29,23.32,23.32,0,0,0,4.68,1.59,39.87,39.87,0,0,1,5.33,1.67,9.42,9.42,0,0,1,3.63,2.66,7.31,7.31,0,0,1,1.59,4.76,7.9,7.9,0,0,1-1.43,4.63,9.39,9.39,0,0,1-4.09,3.2,15.5,15.5,0,0,1-6.21,1.16A15.71,15.71,0,0,1,71,186.24Z"/><path class="cls-1" d="M95.4,164.19a13.81,13.81,0,0,1,5-5.41,13.16,13.16,0,0,1,7-1.94,12.52,12.52,0,0,1,5.62,1.21,11.49,11.49,0,0,1,4,3.09v-3.87h7.59v44H117V183a11.81,11.81,0,0,1-4,3.23,12.36,12.36,0,0,1-5.7,1.29,12.8,12.8,0,0,1-6.91-2,13.84,13.84,0,0,1-5-5.46,16.91,16.91,0,0,1-1.83-8A16.56,16.56,0,0,1,95.4,164.19Zm20.47,3.25a7.79,7.79,0,0,0-2.93-3,7.68,7.68,0,0,0-3.85-1,7.58,7.58,0,0,0-3.79,1,7.82,7.82,0,0,0-2.93,3,9.29,9.29,0,0,0-1.13,4.71,9.59,9.59,0,0,0,1.13,4.76,7.71,7.71,0,0,0,2.93,3,7.57,7.57,0,0,0,3.79,1,7.67,7.67,0,0,0,3.85-1,7.77,7.77,0,0,0,2.93-3,10.48,10.48,0,0,0,0-9.47Z"/><path class="cls-1" d="M160.08,157.27v29.8H152.5v-3.77a9.94,9.94,0,0,1-3.79,3,11.78,11.78,0,0,1-5.08,1.1,12.62,12.62,0,0,1-6.19-1.48,10.42,10.42,0,0,1-4.22-4.36,14.4,14.4,0,0,1-1.53-6.86V157.27h7.53v16.41a7.73,7.73,0,0,0,1.78,5.46,6.29,6.29,0,0,0,4.84,1.91,6.36,6.36,0,0,0,4.89-1.91,7.73,7.73,0,0,0,1.78-5.46V157.27Z"/><path class="cls-1" d="M167.37,164.05a13.2,13.2,0,0,1,4.89-5.38,13,13,0,0,1,6.91-1.88,12.15,12.15,0,0,1,5.84,1.34,11.86,11.86,0,0,1,4,3.39v-4.25h7.59v29.8H189v-4.36a11.21,11.21,0,0,1-4,3.47,12.27,12.27,0,0,1-5.89,1.37,12.66,12.66,0,0,1-6.86-1.94,13.54,13.54,0,0,1-4.89-5.46,17.52,17.52,0,0,1-1.8-8.1A17.24,17.24,0,0,1,167.37,164.05Zm20.58,3.42a7.59,7.59,0,0,0-2.9-3,7.76,7.76,0,0,0-3.93-1,7.56,7.56,0,0,0-6.75,4,9.35,9.35,0,0,0-1.1,4.65,9.65,9.65,0,0,0,1.1,4.71,7.93,7.93,0,0,0,2.9,3.09,7.37,7.37,0,0,0,3.85,1.08,7.76,7.76,0,0,0,3.93-1,7.59,7.59,0,0,0,2.9-3,10.84,10.84,0,0,0,0-9.41Z"/><path class="cls-1" d="M215.3,158.19a10.55,10.55,0,0,1,5.35-1.35v7.91h-2a7.63,7.63,0,0,0-5.35,1.67q-1.8,1.67-1.8,5.81v14.85H204v-29.8h7.53v4.63A10.59,10.59,0,0,1,215.3,158.19Z"/><path class="cls-1" d="M253.2,174.43H231.41a7.41,7.41,0,0,0,2.26,5.06,7,7,0,0,0,4.9,1.83,6.15,6.15,0,0,0,6-3.6h8.12a13.57,13.57,0,0,1-4.95,7.07,14.45,14.45,0,0,1-9,2.77,15.54,15.54,0,0,1-7.72-1.91,13.42,13.42,0,0,1-5.33-5.41,16.56,16.56,0,0,1-1.91-8.07,16.87,16.87,0,0,1,1.88-8.12,13.14,13.14,0,0,1,5.27-5.38,16.93,16.93,0,0,1,15.41-.05,12.88,12.88,0,0,1,5.22,5.19,15.71,15.71,0,0,1,1.86,7.72A17.85,17.85,0,0,1,253.2,174.43Zm-7.59-5.06a6,6,0,0,0-2.1-4.65,7.44,7.44,0,0,0-5-1.75,6.84,6.84,0,0,0-4.71,1.69,7.45,7.45,0,0,0-2.34,4.71Z"/><path class="cls-1" d="M258.76,164.05a13,13,0,0,1,11.86-7.26,12.67,12.67,0,0,1,5.54,1.26,11.09,11.09,0,0,1,4.2,3.36V147.27H288v39.81h-7.64v-4.41a10.21,10.21,0,0,1-3.93,3.55,12.31,12.31,0,0,1-5.86,1.34,12.79,12.79,0,0,1-6.89-1.94,13.48,13.48,0,0,1-4.92-5.46,17.52,17.52,0,0,1-1.8-8.1A17.24,17.24,0,0,1,258.76,164.05Zm20.58,3.42a7.59,7.59,0,0,0-2.9-3,7.76,7.76,0,0,0-3.93-1,7.56,7.56,0,0,0-6.75,4,9.35,9.35,0,0,0-1.1,4.65,9.65,9.65,0,0,0,1.1,4.71,7.93,7.93,0,0,0,2.9,3.09,7.37,7.37,0,0,0,3.85,1.08,7.76,7.76,0,0,0,3.93-1,7.59,7.59,0,0,0,2.9-3,10.84,10.84,0,0,0,0-9.41Z"/><path class="cls-2" d="M179.25,0h-70.5A11.75,11.75,0,0,0,97,11.75v70.5A11.75,11.75,0,0,0,108.75,94h70.5A11.75,11.75,0,0,0,191,82.25V11.75A11.75,11.75,0,0,0,179.25,0Zm2.35,75.2a9.4,9.4,0,0,1-9.4,9.4H115.8a9.4,9.4,0,0,1-9.4-9.4V18.8a9.4,9.4,0,0,1,9.4-9.4h56.4a9.4,9.4,0,0,1,9.4,9.4Z"/><path class="cls-2" d="M133,28.2a7.82,7.82,0,0,1,6.36,3.13H172.2V25.07a6.27,6.27,0,0,0-6.27-6.27H122.07a6.27,6.27,0,0,0-6.27,6.27V47a6.27,6.27,0,0,0,6.27,6.27H148.7a7.83,7.83,0,1,1,0,9.4H115.8v6.27a6.27,6.27,0,0,0,6.27,6.27h43.87a6.27,6.27,0,0,0,6.27-6.27V47a6.27,6.27,0,0,0-6.27-6.27H139.31A7.83,7.83,0,1,1,133,28.2Z"/></g></g></svg>