<svg xmlns="http://www.w3.org/2000/svg" viewBox="0 0 48 48" width="48" height="48" shape-rendering="crispEdges">
  <!-- Pixel-art "Scholar" icon: blue silhouette + gray mortarboard + yellow tassel -->
  <rect width="48" height="48" fill="none"/>

  <!-- Mortarboard (top) -->
  <g fill="#8C8C8C">
    <rect x="20" y="4" width="8" height="1"/>
    <rect x="17" y="5" width="14" height="1"/>
    <rect x="14" y="6" width="20" height="1"/>
    <rect x="11" y="7" width="26" height="1"/>
    <rect x="9" y="8" width="30" height="1"/>
    <rect x="10" y="9" width="28" height="1"/>
    <rect x="12" y="10" width="24" height="1"/>
    <rect x="14" y="11" width="20" height="1"/>
    <rect x="17" y="12" width="14" height="1"/>
    <rect x="20" y="13" width="8" height="1"/>
  </g>

  <!-- Mortarboard (band) -->
  <g fill="#6F6F6F">
    <rect x="18" y="12" width="12" height="2"/>
  </g>

  <!-- Tassel (yellow) -->
  <g fill="#F4D44A">
    <rect x="23" y="6" width="2" height="1"/>
    <rect x="24" y="7" width="1" height="10"/>
    <rect x="23" y="17" width="2" height="1"/>
    <rect x="23" y="18" width="2" height="3"/>
    <rect x="22" y="21" width="4" height="1"/>
  </g>
  <g fill="#D2AA00">
    <rect x="25" y="8" width="1" height="10"/>
    <rect x="25" y="18" width="1" height="3"/>
  </g>

  <!-- Head (blue) -->
  <g fill="#86B7FF">
    <rect x="20" y="14" width="8" height="1"/>
    <rect x="18" y="15" width="12" height="1"/>
    <rect x="17" y="16" width="14" height="1"/>
    <rect x="16" y="17" width="16" height="1"/>
    <rect x="16" y="18" width="16" height="1"/>
    <rect x="15" y="19" width="18" height="1"/>
    <rect x="15" y="20" width="18" height="1"/>
    <rect x="15" y="21" width="18" height="1"/>
    <rect x="15" y="22" width="18" height="1"/>
    <rect x="16" y="23" width="16" height="1"/>
    <rect x="16" y="24" width="16" height="1"/>
    <rect x="17" y="25" width="14" height="1"/>
    <rect x="18" y="26" width="12" height="1"/>
    <rect x="20" y="27" width="8" height="1"/>
  </g>

  <!-- Body (blue) -->
  <g fill="#86B7FF">
    <rect x="14" y="28" width="20" height="1"/>
    <rect x="12" y="29" width="24" height="1"/>
    <rect x="11" y="30" width="26" height="1"/>
    <rect x="10" y="31" width="28" height="1"/>
    <rect x="10" y="32" width="28" height="1"/>
    <rect x="10" y="33" width="28" height="1"/>
    <rect x="10" y="34" width="28" height="1"/>
    <rect x="10" y="35" width="28" height="1"/>
    <rect x="10" y="36" width="28" height="1"/>
    <rect x="10" y="37" width="28" height="1"/>
    <rect x="11" y="38" width="26" height="1"/>
    <rect x="12" y="39" width="24" height="1"/>
    <rect x="13" y="40" width="22" height="1"/>
    <rect x="14" y="41" width="20" height="1"/>
    <rect x="16" y="42" width="16" height="1"/>
    <rect x="18" y="43" width="12" height="1"/>
    <rect x="20" y="44" width="8" height="1"/>
  </g>

  <!-- Subtle silhouette shading -->
  <g fill="#5E90D6">
    <rect x="30" y="16" width="1" height="1"/>
    <rect x="31" y="17" width="1" height="2"/>
    <rect x="32" y="19" width="1" height="4"/>
    <rect x="31" y="23" width="1" height="2"/>
    <rect x="30" y="25" width="1" height="1"/>

    <rect x="36" y="30" width="1" height="8"/>
    <rect x="35" y="38" width="1" height="3"/>
    <rect x="34" y="41" width="1" height="1"/>
  </g>
</svg>


